<svg xmlns="http://www.w3.org/2000/svg" xmlns:xlink="http://www.w3.org/1999/xlink" viewBox="0 0 3008.93 2000"><defs><style>.cls-1{mask:url(#mask);}.cls-2,.cls-4,.cls-6,.cls-7{mix-blend-mode:multiply;}.cls-2{fill:url(#linear-gradient);}.cls-3{mask:url(#mask-2);}.cls-4{fill:url(#linear-gradient-2);}.cls-5{mask:url(#mask-3);}.cls-6{fill:url(#linear-gradient-3);}.cls-7{fill:url(#linear-gradient-4);}.cls-8{isolation:isolate;}.cls-9{fill:#fafafa;}.cls-10{fill:#e0e0e0;}.cls-11{fill:#d9d9d9;}.cls-12{fill:#b8b8b8;}.cls-13{opacity:0.43;}.cls-14{fill:url(#linear-gradient-5);}.cls-15{opacity:0.22;}.cls-16{fill:url(#linear-gradient-6);}.cls-17{fill:url(#linear-gradient-7);}.cls-18{fill:url(#linear-gradient-8);}.cls-19{fill:url(#linear-gradient-9);}.cls-20,.cls-21,.cls-22{fill:#3c5185;}.cls-20{opacity:0.84;}.cls-21{opacity:0.72;}.cls-23{fill:#6a75ba;}.cls-24{fill:#545d94;}.cls-25{fill:#eea886;}.cls-26{fill:#d9d3c8;}.cls-27{fill:#222538;}.cls-28{fill:#ffc955;}.cls-29{fill:#a77860;}.cls-30{fill:#c29941;}.cls-31{fill:#fff;}.cls-32{mask:url(#mask-5);}.cls-33{mask:url(#mask-6);}.cls-34{fill:url(#linear-gradient-10);}.cls-35{mask:url(#mask-7);}.cls-36{mask:url(#mask-8);}.cls-37{fill:url(#linear-gradient-11);}.cls-38,.cls-55{mix-blend-mode:hard-light;}.cls-38{fill:url(#linear-gradient-12);}.cls-39{fill:#616587;}.cls-40{fill:#152b3d;}.cls-41{fill:#f90;}.cls-42{fill:#ffc05c;}.cls-43{fill:#353a3d;}.cls-44{fill:#254380;}.cls-45{fill:#e55353;}.cls-46{fill:#eea987;}.cls-47{fill:#202338;}.cls-48{fill:#2f6b8c;}.cls-49{fill:#2f4563;}.cls-50{fill:#f5e1d9;}.cls-51{fill:#4b6f9e;}.cls-52{fill:#eddad3;}.cls-53{fill:#c9bab3;}.cls-54{fill:#1e2c40;}.cls-56{fill:url(#linear-gradient-13);}.cls-57{fill:url(#linear-gradient-14);}.cls-58{fill:url(#linear-gradient-15);}.cls-59{fill:url(#linear-gradient-16);}.cls-60{fill:#007bde;}.cls-61{fill:#1a598c;}.cls-62{fill:#2273b5;}.cls-63{fill:#3788cc;}.cls-64{fill:#81807e;}.cls-65{fill:#292c47;}.cls-66{fill:#cac7d1;}.cls-67{fill:#1d2033;}.cls-68{fill:#323657;}.cls-69{fill:#c78d71;}.cls-70{fill:#a09ea6;}.cls-71{fill:#eae6f2;}.cls-72{fill:#3a4066;}.cls-73{fill:#f2dfd8;}.cls-74{fill:#d6c5be;}.cls-75{fill:url(#linear-gradient-17);}.cls-76{fill:url(#linear-gradient-18);}.cls-77{fill:url(#linear-gradient-19);}.cls-78{fill:#ffa855;}.cls-79{fill:#ffa555;}.cls-80{fill:#858585;}.cls-81{fill:#e2d2ca;}.cls-82{fill:#1c1e30;}.cls-83{fill:#24263d;}.cls-84{fill:#282b45;}.cls-85{fill:#1f2136;}.cls-86{fill:#4f558a;}.cls-87{fill:#d6c5bf;}.cls-88{fill:#16202e;}.cls-89{fill:#007fe6;}.cls-90{fill:#6e6760;}.cls-91{fill:#918880;}.cls-92{fill:#706865;}.cls-93{fill:#eb4747;}.cls-94{fill:#d69779;}.cls-95{fill:#12131f;}.cls-96{fill:#9e633a;}.cls-97{fill:#97a43c;}.cls-98{fill:#82522f;}.cls-99{fill:#c67b47;}.cls-100{filter:url(#luminosity-noclip-8);}.cls-101{filter:url(#luminosity-noclip-7);}.cls-102{filter:url(#luminosity-noclip-6);}.cls-103{filter:url(#luminosity-noclip-5);}.cls-104{filter:url(#luminosity-noclip-3);}.cls-105{filter:url(#luminosity-noclip-2);}.cls-106{filter:url(#luminosity-noclip);}</style><filter id="luminosity-noclip" x="388.48" y="-9192" width="99.79" height="32766" filterUnits="userSpaceOnUse" color-interpolation-filters="sRGB"><feFlood flood-color="#fff" result="bg"/><feBlend in="SourceGraphic" in2="bg"/></filter><mask id="mask" x="388.48" y="-9192" width="99.79" height="32766" maskUnits="userSpaceOnUse"><g class="cls-106"/></mask><linearGradient id="linear-gradient" x1="433.46" y1="810.14" x2="441.87" y2="1216.34" gradientUnits="userSpaceOnUse"><stop offset="0" stop-color="#fff"/><stop offset="1"/></linearGradient><filter id="luminosity-noclip-2" x="352.73" y="-9192" width="41.59" height="32766" filterUnits="userSpaceOnUse" color-interpolation-filters="sRGB"><feFlood flood-color="#fff" result="bg"/><feBlend in="SourceGraphic" in2="bg"/></filter><mask id="mask-2" x="352.73" y="-9192" width="41.59" height="32766" maskUnits="userSpaceOnUse"><g class="cls-105"/></mask><linearGradient id="linear-gradient-2" x1="368.64" y1="811.48" x2="377.05" y2="1217.68" xlink:href="#linear-gradient"/><filter id="luminosity-noclip-3" x="2429.55" y="-9192" width="84.72" height="32766" filterUnits="userSpaceOnUse" color-interpolation-filters="sRGB"><feFlood flood-color="#fff" result="bg"/><feBlend in="SourceGraphic" in2="bg"/></filter><mask id="mask-3" x="2429.55" y="-9192" width="84.72" height="32766" maskUnits="userSpaceOnUse"><g class="cls-104"/></mask><linearGradient id="linear-gradient-3" x1="2518.55" y1="8.63" x2="2421.09" y2="373.21" gradientTransform="translate(4943.82 366.21) rotate(-180)" xlink:href="#linear-gradient"/><linearGradient id="linear-gradient-4" x1="2504.27" y1="33.55" x2="2428.78" y2="315.92" gradientTransform="translate(4943.82 309.18) rotate(-180)" xlink:href="#linear-gradient"/><linearGradient id="linear-gradient-5" x1="1067.39" y1="1311.41" x2="2641.48" y2="1311.41" gradientUnits="userSpaceOnUse"><stop offset="0" stop-color="#ffc05c"/><stop offset="1" stop-color="#ff3857"/></linearGradient><linearGradient id="linear-gradient-6" x1="1067.39" y1="1268.82" x2="2642.31" y2="1268.82" gradientUnits="userSpaceOnUse"><stop offset="0" stop-color="#40d5e6"/><stop offset="1" stop-color="#57f"/></linearGradient><linearGradient id="linear-gradient-7" x1="1820.95" y1="767.97" x2="2382.35" y2="767.97" gradientUnits="userSpaceOnUse"><stop offset="0" stop-color="#8fd6ff"/><stop offset="1" stop-color="#bfebfe"/></linearGradient><linearGradient id="linear-gradient-8" x1="1811.61" y1="695.89" x2="2371.2" y2="695.89" xlink:href="#linear-gradient-7"/><linearGradient id="linear-gradient-9" x1="1925.65" y1="520" x2="1609.24" y2="1421.49" gradientUnits="userSpaceOnUse"><stop offset="0" stop-color="#c6cbcf"/><stop offset="1" stop-color="#f8f1fe"/></linearGradient><filter id="luminosity-noclip-5" x="388.48" y="1023.19" width="99.79" height="48.5" filterUnits="userSpaceOnUse" color-interpolation-filters="sRGB"><feFlood flood-color="#fff" result="bg"/><feBlend in="SourceGraphic" in2="bg"/></filter><mask id="mask-5" x="378.48" y="1021.37" width="99.79" height="48.5" maskUnits="userSpaceOnUse"><g class="cls-103"><g transform="translate(-10 -1.82)"><g class="cls-1"><polygon class="cls-2" points="411.87 1071.69 488.27 1071.69 464.88 1023.19 388.48 1023.19 411.87 1071.69"/></g></g></g></mask><filter id="luminosity-noclip-6" x="352.73" y="1023.19" width="41.59" height="48.5" filterUnits="userSpaceOnUse" color-interpolation-filters="sRGB"><feFlood flood-color="#fff" result="bg"/><feBlend in="SourceGraphic" in2="bg"/></filter><mask id="mask-6" x="342.73" y="1021.37" width="41.59" height="48.5" maskUnits="userSpaceOnUse"><g class="cls-102"><g transform="translate(-10 -1.82)"><g class="cls-3"><polygon class="cls-4" points="376.12 1071.69 394.32 1071.69 370.94 1023.19 352.73 1023.19 376.12 1071.69"/></g></g></g></mask><linearGradient id="linear-gradient-10" x1="358.65" y1="809.66" x2="367.05" y2="1215.86" xlink:href="#linear-gradient-6"/><filter id="luminosity-noclip-7" x="2429.55" y="166.77" width="84.72" height="32.68" filterUnits="userSpaceOnUse" color-interpolation-filters="sRGB"><feFlood flood-color="#fff" result="bg"/><feBlend in="SourceGraphic" in2="bg"/></filter><mask id="mask-7" x="2419.55" y="164.95" width="84.72" height="32.68" maskUnits="userSpaceOnUse"><g class="cls-101"><g transform="translate(-10 -1.82)"><g class="cls-5"><rect class="cls-6" x="2429.55" y="166.77" width="84.72" height="32.68" transform="translate(4943.82 366.21) rotate(180)"/></g></g></g></mask><filter id="luminosity-noclip-8" x="2429.55" y="151.52" width="84.72" height="6.15" filterUnits="userSpaceOnUse" color-interpolation-filters="sRGB"><feFlood flood-color="#fff" result="bg"/><feBlend in="SourceGraphic" in2="bg"/></filter><mask id="mask-8" x="2419.55" y="149.7" width="84.72" height="6.15" maskUnits="userSpaceOnUse"><g class="cls-100"><g transform="translate(-10 -1.82)"><g class="cls-5"><rect class="cls-7" x="2429.55" y="151.52" width="84.72" height="6.15" transform="translate(4943.82 309.18) rotate(180)"/></g></g></g></mask><linearGradient id="linear-gradient-11" x1="2504.27" y1="33.55" x2="2428.78" y2="315.92" gradientTransform="translate(4943.82 309.18) rotate(-180)" xlink:href="#linear-gradient-6"/><linearGradient id="linear-gradient-12" x1="877.64" y1="973.82" x2="877.64" y2="1506.17" gradientUnits="userSpaceOnUse"><stop offset="0" stop-color="#626e7a"/><stop offset="1" stop-color="#f5f5f5"/></linearGradient><linearGradient id="linear-gradient-13" x1="1000.39" y1="1071.25" x2="1018.91" y2="1071.25" gradientUnits="userSpaceOnUse"><stop offset="0" stop-color="#d5e4ff"/><stop offset="1" stop-color="#edfffe"/></linearGradient><linearGradient id="linear-gradient-14" x1="1032.89" y1="1057.53" x2="1051.41" y2="1057.53" xlink:href="#linear-gradient-13"/><linearGradient id="linear-gradient-15" x1="1067" y1="1064.71" x2="1085.51" y2="1064.71" xlink:href="#linear-gradient-13"/><linearGradient id="linear-gradient-16" x1="1102.04" y1="1081.37" x2="1120.55" y2="1081.37" xlink:href="#linear-gradient-13"/><linearGradient id="linear-gradient-17" x1="946.52" y1="1461.34" x2="946.52" y2="1371.67" gradientUnits="userSpaceOnUse"><stop offset="0" stop-color="#ff9f55"/><stop offset="1" stop-color="#ffd255"/></linearGradient><linearGradient id="linear-gradient-18" x1="-8739.8" y1="1504.6" x2="-8692.09" y2="1504.6" gradientTransform="matrix(-1, 0, 0, 1, -7778.95, 0)" xlink:href="#linear-gradient-17"/><linearGradient id="linear-gradient-19" x1="-8689.14" y1="1303.22" x2="-8643.62" y2="1303.22" gradientTransform="matrix(-1, 0, 0, 1, -7778.95, 0)" xlink:href="#linear-gradient-17"/></defs><g class="cls-8"><g id="Слой_1" data-name="Слой 1"><rect class="cls-9" width="3008.93" height="2000"/><rect class="cls-10" x="1448.15" y="1030.26" width="5.53" height="580.66"/><rect class="cls-10" x="1841.67" y="1030.26" width="5.53" height="580.66"/><rect class="cls-10" x="2235.19" y="1030.26" width="5.54" height="580.66"/><rect class="cls-11" x="1057.39" y="958.7" width="94.26" height="15.14"/><rect class="cls-11" x="1057.39" y="986.68" width="133.7" height="15.14"/><rect class="cls-11" x="1446.67" y="958.7" width="110.66" height="15.14"/><rect class="cls-11" x="1446.67" y="986.68" width="70.76" height="15.14"/><rect class="cls-11" x="1847.2" y="958.7" width="68.57" height="15.14"/><rect class="cls-11" x="1847.2" y="986.68" width="79.93" height="15.14"/><rect class="cls-11" x="2240.73" y="958.7" width="99.89" height="15.14"/><rect class="cls-11" x="2240.73" y="986.68" width="79.93" height="15.14"/><rect class="cls-12" x="1450.91" y="1645.32" width="62.61" height="20.18"/><rect class="cls-12" x="1847.2" y="1645.32" width="62.61" height="20.18"/><rect class="cls-12" x="2240.73" y="1645.32" width="62.61" height="20.18"/><g class="cls-13"><path class="cls-14" d="M2505.1,1440.21c-122.74,0-229.44-53.06-340.67-108.37-137.32-68.29-279.32-138.9-468.51-119.57-120.81,12.35-196.64,61.55-263.55,105-60.57,39.3-117.84,73.86-195.41,76.82-125.36,4.76-168.85-48.7-169.57-52v-34.31h0c.16.59,27.52,60.6,169.44,59.89,69.88-.35,121.46-33.82,181.19-72.57,69.4-45,148.07-96.07,275.22-109.07,196.77-20.11,342.25,52.23,482.94,122.19,147.2,73.2,287.67,141.85,465.3,82.29v28.21C2590.85,1435.7,2550.35,1440.21,2505.1,1440.21Z" transform="translate(-10 -1.82)"/></g><g class="cls-15"><path class="cls-16" d="M1768.35,1433.64c-90.6,0-162.46-60.93-232.81-120.58-53.34-45.22-108.68-91.46-172.56-114.27-195-69.6-294.7,57.5-295.59,58.62v-38.67c1-1.32,18.84-24.42,70.32-46.48,46.86-20.08,125.48-36.1,233.93,1.62,68.71,23.9,125.77,72.28,181,119.06,111.94,94.91,208.62,176.88,376.51,48.49,127.17-97.24,247-189.9,365-223.76,115.36-33.11,235.63-8.87,348.21,103.71l-.83,35.11c-239.14-240.19-442.76-88-696.34,105.89C1878,1413.75,1820.09,1433.63,1768.35,1433.64Z" transform="translate(-10 -1.82)"/></g><polygon class="cls-17" points="1824.94 891.54 1820.95 886.85 1887.24 830.38 1927.5 830.38 2018.84 752.56 2075.97 801.23 2118.1 801.23 2139.4 819.37 2205.56 763.01 2239.14 763.01 2378.36 644.4 2382.35 649.09 2241.4 769.17 2207.82 769.17 2139.4 827.46 2115.84 807.39 2073.71 807.39 2018.84 760.65 1929.77 836.54 1889.51 836.54 1824.94 891.54"/><polygon class="cls-18" points="1834.52 813.53 1811.61 813.53 1811.61 807.37 1831.97 807.37 1866.37 772.97 1891.38 797.99 1951.14 738.23 1969.52 756.61 2030.1 696.03 2066.4 732.33 2107.8 732.33 2171.68 668.45 2226.78 668.45 2267.51 627.72 2317.37 627.72 2366.84 578.24 2371.2 582.6 2319.92 633.88 2270.06 633.88 2229.33 674.61 2174.23 674.61 2110.35 738.49 2063.85 738.49 2030.1 704.74 1969.52 765.33 1951.14 746.95 1891.38 806.7 1866.37 781.68 1834.52 813.53"/><path class="cls-19" d="M2456.34,829.35c0-.13-.08-.26-.11-.39-58.92-205.48-206-381.11-409.14-471.49h0a740.35,740.35,0,0,0-391.55-58.73,2,2,0,0,0-.24,0l-.13,0A735.39,735.39,0,0,0,1476,344.53c-.12,0-.23.1-.34.13C1265.49,427.3,1096,605.16,1032.84,839.9c-106,394,127.34,799.15,521.17,905.14,202.24,54.41,407.43,19.37,573.6-80.89l31,43.08L2304.82,1602l-35.29-49a735.16,735.16,0,0,0,189.65-329.23C2495.31,1089.48,2492,953.88,2456.34,829.35Zm-540.75,674.76c-261.11,93.57-548.66-42.23-642.23-303.34-91.84-256.25,37.25-538,288.91-636.81q7.14-2.81,14.43-5.42a500.46,500.46,0,0,1,374.24,14.21c120.6,53.87,219.91,155,268,289.13q5.66,15.84,10.24,31.8C2301.3,1145.93,2166.14,1414.31,1915.59,1504.11Z" transform="translate(-10 -1.82)"/><path class="cls-20" d="M2601.8,787.48,2456.23,829l-227.06,64.71q-4.58-15.95-10.24-31.79c-48.08-134.17-147.39-235.26-268-289.13l96.13-215.28h0l10.11-22.66,51.67-115.7C2353.74,328,2530.92,539.79,2601.8,787.48Z" transform="translate(-10 -1.82)"/><path class="cls-21" d="M2057.2,334.81l-10.11,22.66-96.15,215.28a501.19,501.19,0,0,0-266.46-40l-29-234-3-24.55a765.49,765.49,0,0,1,404.71,60.62Z" transform="translate(-10 -1.82)"/><path class="cls-22" d="M1684.48,532.78a503.82,503.82,0,0,0-107.78,25.76q-7.29,2.61-14.43,5.42L1476,344.53l-26.14-66.41a806,806,0,0,1,196.8-50.34l.15,0,5.73,46.37,3,24.55Z" transform="translate(-10 -1.82)"/><polygon class="cls-22" points="2617.32 2000 2326.22 2000 2123.9 1719.05 2315.6 1581.02 2617.32 2000"/><path class="cls-23" d="M1588.6,176.89s-10.49-19.25-16.46-26.18-25.79-12.13-23.1-21,29.26-5,36.57,3.65,29.65,11.75,30.42,15.4-7.76,23.68-12.54,26.95S1588.6,176.89,1588.6,176.89Z" transform="translate(-10 -1.82)"/><path class="cls-24" d="M1544,193.2s-17.09-13.55-25.31-17.54-28.49-.89-29.53-10.08,24.86-16.21,35-11.17,31.87-1,34,2.06,2.28,24.8-.81,29.71S1544,193.2,1544,193.2Z" transform="translate(-10 -1.82)"/><path class="cls-25" d="M1582,228.47s7.46-51,7.12-59.86c-.1-2.53,15.35-1.59,14.63,3.27-1.57,10.58,5.55,51.59,4.32,59.09S1581.32,233.2,1582,228.47Z" transform="translate(-10 -1.82)"/><path class="cls-25" d="M1558.58,243.13s-14-49.53-17.23-57.77c-1.45-3.66,12.79-9.34,14.72-2.8,3,10.26,25.59,45.13,27.43,52.51S1559.88,247.72,1558.58,243.13Z" transform="translate(-10 -1.82)"/><path class="cls-26" d="M1568.29,277.55s-15-50.62-17.32-56l23.67-14.63s11,32.34,12.51,40.42S1568.29,277.55,1568.29,277.55Z" transform="translate(-10 -1.82)"/><path class="cls-27" d="M1987.37,143.8s-22.86,5.78-33.74,23.07-20.28,37.2-40.72,46.24-20.57,32.31-19,35.9,64.38,74.17,78.08,76.9,39.36.83,36.61-17.3-29.62-57.16-14.53-76.84S2013,194,2013,194Z" transform="translate(-10 -1.82)"/><path class="cls-25" d="M1983.38,228.21a8.82,8.82,0,0,0-1.79-.32,13.09,13.09,0,0,0-5.34.64,11.71,11.71,0,0,0-2.09,1c-5.44,3.2-18.29,11.89-20,12.1-2,.24-.31-29.75-.31-29.75s6.84-12.11,7.7-20.08S1983.38,228.21,1983.38,228.21Z" transform="translate(-10 -1.82)"/><path class="cls-26" d="M1822.56,259.56s-25.12-17.62-54.57-12.13-32.63,19.25-42.73,19.88-43.89-2.27-71.6,5.82-51.11,8.95-54.28,6.64,17.32-48.51,17.32-54.86L1582.34,216s-9.82,41-13.66,50.24c-4.12,9.88-12,28.48-.77,44.65s42.73,8.88,61.78,12.14,104.35,1.17,119.24.37c16.17-.86,65-3.17,65-3.17Z" transform="translate(-10 -1.82)"/><path class="cls-25" d="M2028.86,168.27s1.6,24.82-3.91,32.26a36.14,36.14,0,0,1-4.7,5.47,11,11,0,0,0-3.14,4.54c-1.7,4.78-2.75,11.49-4.1,12.93s-5.77-2.41-7.32-2.42-16.67,13-20.28,10.36-25.67-25-23.81-40.39,8.62-38.24,33.45-38.1S2027,162.1,2028.86,168.27Z" transform="translate(-10 -1.82)"/><path class="cls-28" d="M1953.83,286.69c-.48,1-9.61,15.6-19.61,24.06-4.15,3.52-8.45,6-12.34,6-1.19,0-2.35,0-3.48,0-11.47.31-20.29,2.07-35.79,2.84-16.09.8-55.14-1.44-56.3-1.44s-12.41,2-12.41,2c-4.05-4.91,6.64-60.35,8.66-60.63s15,4.61,27.43,2.59,17.32-3.17,35.8-24.83,37-27.14,44.75-25.4,23.29,0,23.29,0S1954.5,285.25,1953.83,286.69Z" transform="translate(-10 -1.82)"/><path class="cls-27" d="M2018.43,186s4.63,12,7.08,13.64c0,0,8.93-9.44,3.19-32.75s-27.36-25.49-41.33-23.13c-17.39,2.95-34.89,61.77-34,67.5s20.38-30.4,37.45-27.49S2008,187.67,2018.43,186Z" transform="translate(-10 -1.82)"/><path class="cls-29" d="M1981.59,227.89a13.26,13.26,0,0,0-5.33.74,10.51,10.51,0,0,0-2.1.94c-4-6.22-7.69-21-7.82-21.49C1969,213.76,1981.59,227.89,1981.59,227.89Z" transform="translate(-10 -1.82)"/><path class="cls-30" d="M1934.22,310.75c-4.15,3.52-8.45,6-12.34,6-1.19,0-2.35,0-3.48,0l5.67-45.95Z" transform="translate(-10 -1.82)"/><path class="cls-25" d="M2024.06,389.88,2013,400c-9.56-5.13-33.52-22.37-38.13-26.3-4.84-4.12-37.07-31.08-41.5-37.22s-10.12-69.66-9.55-72.57,28-4.35,31.14,2.37c0,0,1.44,36.23,2.18,42.29a31.38,31.38,0,0,0,7.17,16.64c5.76,7.06,18,23.46,29.88,36.71C1997,365.05,2020.4,386.73,2024.06,389.88Z" transform="translate(-10 -1.82)"/><path class="cls-28" d="M1957.2,267.06s1.73-48.23-14-47.64c-19.83.76-22.81,25-20.11,51.4C1923.13,270.82,1952.77,271.1,1957.2,267.06Z" transform="translate(-10 -1.82)"/><path class="cls-25" d="M2018.72,385.16a8.21,8.21,0,0,0,3.62,3c3.69,1.25,9.15-1.16,11.84,3.68s-10.31,16.92-13.8,17.65-9.09-4.7-13.47-15.43S2018.72,385.16,2018.72,385.16Z" transform="translate(-10 -1.82)"/><path class="cls-25" d="M2033,390.38a168.78,168.78,0,0,1,13.34,11.54c5.88,5.68,11.87,13.15,10.36,14.56-2.06,1.93-6.08-4.49-12.29-9.75-5.71-4.85-5.39-3-5.39-3s-.06-.54,5.15,5.91c5.61,6.92,11.4,15.15,9.67,16.34-1.08.74-1.13.94-3.58-1.26,1.14,1.55.87,2.06.27,2.57-3.13,2.62-13-6.34-16.85-9.91,3,2.76,4.87,5.08,1.84,5.44-3.46.41-16.78-12.87-22-17.19C2007.85,400.94,2033,390.38,2033,390.38Z" transform="translate(-10 -1.82)"/><path class="cls-10" d="M1833.84,261.76s-5.29,38-2.68,56.64c0,0,2.76,2.05,8.25.39,0,0,1.38-41.44,4.45-56.15C1843.86,262.64,1842.17,261.36,1833.84,261.76Z" transform="translate(-10 -1.82)"/><rect class="cls-10" x="1825.1" width="4.1" height="288.65"/><rect class="cls-31" x="2475.93" y="1496.93" width="79.47" height="5.57" transform="translate(5021.33 2997.61) rotate(180)"/><rect class="cls-31" x="2475.93" y="1507.43" width="79.47" height="23.42" transform="translate(5021.33 3036.45) rotate(180)"/><rect class="cls-31" x="2438.6" y="1538.72" width="46.88" height="3.5" transform="translate(4914.09 3079.12) rotate(180)"/><rect class="cls-31" x="2438.6" y="1543.75" width="46.88" height="9.48" transform="translate(4914.09 3095.16) rotate(180)"/><rect class="cls-31" x="2568.45" y="1466.9" width="3.5" height="65.62" transform="translate(5130.4 2997.61) rotate(180)"/><g class="cls-32"><polygon class="cls-22" points="401.87 1069.88 478.27 1069.88 454.89 1021.37 378.48 1021.37 401.87 1069.88"/></g><g class="cls-33"><polygon class="cls-34" points="366.12 1069.88 384.32 1069.88 360.94 1021.37 342.73 1021.37 366.12 1069.88"/></g><g class="cls-35"><rect class="cls-22" x="2429.55" y="166.77" width="84.72" height="32.68" transform="translate(4933.82 364.39) rotate(180)"/></g><g class="cls-36"><rect class="cls-37" x="2429.55" y="151.52" width="84.72" height="6.15" transform="translate(4933.82 307.37) rotate(180)"/></g><rect class="cls-38" x="578.29" y="854.23" width="598.71" height="52.47" rx="23.29"/><polygon class="cls-39" points="1494.62 1626.93 1798.63 1626.93 1702.82 1921.18 1711.78 1924.1 1811.61 1617.51 1487.78 1617.51 1388.89 1921.18 1397.85 1924.1 1494.62 1626.93"/><polygon class="cls-39" points="1598.09 1921.18 1502.27 1626.93 1806.28 1626.93 1903.05 1924.1 1912.01 1921.18 1813.13 1617.51 1489.29 1617.51 1589.13 1924.1 1598.09 1921.18"/><rect class="cls-39" x="1466.33" y="1710.17" width="372.1" height="9.42"/><rect class="cls-39" x="1428" y="1812.48" width="445.19" height="9.42"/><path class="cls-25" d="M1657,957.18s7.58-13.26-4.44-48.81c-11.62-34.37-51.86-31.26-64.65-9.23s-8.46,35.7,10.36,60.57S1649.14,968.55,1657,957.18Z" transform="translate(-10 -1.82)"/><path class="cls-25" d="M1563.49,1568.71s-2,14.6-2.24,16.79-22.15-1.29-22.15-1.29l-1.77-17.37S1560.76,1566.66,1563.49,1568.71Z" transform="translate(-10 -1.82)"/><path class="cls-40" d="M1561.49,1583.65s6.94,8.8,13.65,12.63,17.25,5.35,21.22,9.32c2.87,2.86,10.44,15.2-17.44,15s-41.31,1.74-44.3-3,4.33-34.9,4.33-34.9S1545.77,1584.58,1561.49,1583.65Z" transform="translate(-10 -1.82)"/><path class="cls-25" d="M1715.14,1568.71s-2,14.6-2.24,16.79-22.15-1.29-22.15-1.29l-1.78-17.37S1712.4,1566.66,1715.14,1568.71Z" transform="translate(-10 -1.82)"/><path class="cls-40" d="M1713.13,1583.65s6.94,8.8,13.65,12.63,31.41,7,35.38,11c2.86,2.86,7.62,14.4-31.6,13.32-27.86-.77-41.31,1.74-44.29-3s4.32-34.9,4.32-34.9A115.78,115.78,0,0,0,1713.13,1583.65Z" transform="translate(-10 -1.82)"/><path class="cls-41" d="M1570.87,1205.24s-11.23,34.9-9.75,65-5.81,63-8.79,94.39c-3.32,35-16.9,117.93-17.4,136.66s2.11,78.55,2.11,78.55l27.2.66s22.84-144.94,28.76-159.73,35.25-120.23,36.24-132.06S1570.87,1205.24,1570.87,1205.24Z" transform="translate(-10 -1.82)"/><path class="cls-41" d="M1683.63,1201.61s16.51,92.26,18.49,110.67,3.28,89.07,4.27,100.57,6.57,150.53,11.83,167.62h-30.33s-31.13-101.07-31.13-148.88-20.62-104-33.93-135.51-43.78-32.3-52-90.84C1570.87,1205.24,1672.55,1183,1683.63,1201.61Z" transform="translate(-10 -1.82)"/><path class="cls-25" d="M1646,966.56s-3.42,10,0,17.06-43.7,2.85-43.7,2.85,2.13-14.69-4-26.76S1646,966.56,1646,966.56Z" transform="translate(-10 -1.82)"/><path class="cls-42" d="M1568.68,1212.84s17,17.41,116.47-2.71l-1.52-8.52-113.13,4.26Z" transform="translate(-10 -1.82)"/><path class="cls-25" d="M1653.09,985.93s17.4,1.78,22.38,2.72,38.45-6,45.31-6.69,36.15-20.78,37.1-23.14,17.82-45.08,18.76-54.32,16.44-4.47,15.11,1.9c-2.49,11.9-5.68,40.8-7.42,49.18-1.89,9-6.95,29.53-9.79,32s-29.21,22.58-55,31.1a219.71,219.71,0,0,0-45.24,21.08H1547.05s-49.48-70.73-50.54-81.39,34.56-81.49,41.66-90.37,17.38,2.9,17.38,2.9-21.29,62.46-24.13,71.34,24.76,47.9,32.34,48,27-2.37,35.68-2.72,17.77-4.15,17.77-4.15Z" transform="translate(-10 -1.82)"/><path class="cls-22" d="M1707.91,1033.18s-15.57,10.35-17,28.11-7.11,45.83-10,55.42,2.49,79.21,3.2,84.18-98.44,16.79-113.67,5c0,0-4.27-65-6-83.48s-10.3-63.23-13.14-69.27-37.3-54.37-38.72-60.74c0,0,17.82-28.42,30.61-28.77,0,0,20.31,23.8,26.93,24.86s47.21-6.37,47.22-6.43,4.43,6,28-1.07c0,0,28.05,3.16,32.61,3.74,5.53.71,43.93-4.82,43.93-4.82s15.41,26,12.71,39.16Z" transform="translate(-10 -1.82)"/><path class="cls-25" d="M1775.75,910.05s3.48-16.46-.71-21.19c-2.38-2.69-8.11-9.81-8.63-10.86s-6.68-4.58-6.68-6.28,6-3.8,11.26,1,8.5,5.88,10.6,5.36,5.1-17.93,5.36-22.25,1.93-15.7,4.63-14.91,2.57,5.76,2.57,5.76,3.14-8.64,5.23-6.94,1.83,5.89,1.83,5.89,3.93-4.84,5-1.31a12.28,12.28,0,0,1,0,6.67s4-2.22,4.32,3.27-1.18,21.6-4.06,27.35-13.66,20.82-14.94,26.7S1775.75,910.05,1775.75,910.05Z" transform="translate(-10 -1.82)"/><path class="cls-25" d="M1552.09,881.14s11.83-19.9,15.86-21.67,9.71-2.79,14.68-6.34,11.55-6.51,11.19-7.7-6.22-.71-12.49,2-9,1.41-9.62,0,3.34-11.45,5.24-13.82,15.39-15.94,13.14-18-11,5.45-12.43,7c0,0,7-14.68,4.26-15.39s-7.82,4.5-7.82,4.5.6-12.56-12.9,7.81c0,0,2.84-6.75-1.31-4.5s-8.17,14.92-9.47,21.32-7.21,26.76-12.25,31.67S1552.09,881.14,1552.09,881.14Z" transform="translate(-10 -1.82)"/><path class="cls-43" d="M1598.22,959.71s6.24.55,19.5-4,14.25-27.77,17.12-25c5.85,5.61,11.38,1.74,13.59-1.57,0,0-6.47-8.53-3.47-12.64a31.92,31.92,0,0,1,7.88-7.1s-9.33-45-51.78-24.47C1551.33,908.87,1598.22,959.71,1598.22,959.71Z" transform="translate(-10 -1.82)"/><path class="cls-44" d="M1646,983.62l-1.49-6.49s-27.09-.55-41.88,1.59l-1.55,7.77S1620,995.07,1646,983.62Z" transform="translate(-10 -1.82)"/><path class="cls-25" d="M1639.27,925c-2.46-4.09-11.56-6.85-12.63,4.74-.83,9,16.26,18.79,16.42,10.42S1640.91,927.69,1639.27,925Z" transform="translate(-10 -1.82)"/><path class="cls-45" d="M1776.4,906.31s9.78.24,14.52,4.53a9.68,9.68,0,0,1-.8,4.86s-8.47-4-15-4.69C1775.15,911,1775.26,907.45,1776.4,906.31Z" transform="translate(-10 -1.82)"/><path class="cls-43" d="M1787.92,908.75a4.2,4.2,0,1,1-5.5-2.24A4.21,4.21,0,0,1,1787.92,908.75Z" transform="translate(-10 -1.82)"/><path class="cls-46" d="M2560.17,1136.75s-8.67,1.15-8.61-2.52.66-8.46.66-8.46Z" transform="translate(-10 -1.82)"/><path class="cls-46" d="M2608.94,1096.93l-28.49,22c3.63-.69,9.71-1.56,9.85.34.2,2.71-10.83,6-14.32,8.44-3.2,2.26-6.56,6.29-7.46,6.47l-6.22,5.34-10.08-13.79s16.63-18.81,20.64-22.83c6.51-6.52,32.86-10.35,34.3-9.4C2609.77,1095.25,2608.94,1096.93,2608.94,1096.93Z" transform="translate(-10 -1.82)"/><path class="cls-22" d="M2573.78,1140.49l-23-19.46L2472,1200.64c-12.34,8.48,24.05,37.71,34.33,44.08,26.41,16.38,57.56,54.27,89.88,31.16,35-25.05-16-42.88-33-42.44-14.74.38-46.84-28.6-46.84-28.6Z" transform="translate(-10 -1.82)"/><path class="cls-47" d="M2532.2,1854.91s-13.09,13.75-26.38,16.63-22.58,6.55-22.68,14.44,38.24,13.08,53.45,5.13c22.69-11.86,25-8.29,27.51-14.22s-3-21.79-2.85-23.68C2561.45,1850.88,2532.2,1854.91,2532.2,1854.91Z" transform="translate(-10 -1.82)"/><path class="cls-48" d="M2533.67,1848.34s-1.73,6.44-1.47,6.57,29.94,3.47,29.05-1.7c-.73-4.19-1.77-8.75-1.77-8.75Z" transform="translate(-10 -1.82)"/><path class="cls-47" d="M2680.06,1858.5s-9.63,13.39-22.51,16.48c-12.7,3-20.93,8.84-21.55,16.5s29.94,17.71,51.42,4.24c14.11-8.85,19.37-8.34,22.22-14s-1.49-21.37-1.21-23.2C2708.78,1856.3,2680.06,1858.5,2680.06,1858.5Z" transform="translate(-10 -1.82)"/><path class="cls-48" d="M2680.46,1851.88s-.64,6.47-.4,6.62,28.54,5.15,28.37,0a39.26,39.26,0,0,0-1.79-9.09Z" transform="translate(-10 -1.82)"/><path class="cls-22" d="M2563.61,1461.61s-13.74,99.87-19.36,133.63c-6.57,39.47-8.79,72.09-10.62,92.52-2.3,25.7-5.36,157.21-7,164.72s40.05,3.61,40.05,3.61,21.82-171.44,28.68-198.81c6.38-25.48,25-135.56,30.81-128.6s23.67,131.65,28,151.75,15.89,178.31,15.89,178.31,39.29,6.3,47.21,0c0,0-6.2-141.08-9-178.76-1-14.36,9.08-171.91-15.2-235.45C2680.29,1411,2563.61,1461.61,2563.61,1461.61Z" transform="translate(-10 -1.82)"/><path class="cls-41" d="M2604,1222.09s-36.38,7.53-40.69,11.35c-4.69,4.07-13,43.91-13.45,55s4.39,57.47,9.07,74.74,4.75,92,1.79,115.89c0,0,70.08,14.33,142.1,5,0,0-9.82-72.66-6.94-96.32,3.7-30.31,12.58-100.14,12.58-100.14s.06-39.31-5.51-45.6c-12-13.48-57.88-19.89-57.88-19.89Z" transform="translate(-10 -1.82)"/><path class="cls-49" d="M2658.59,1295c1.7,36,13.15,44.72,24.43,41.92a24.88,24.88,0,0,0,10.07-5.53c4.8-4.18,8.56-10,9.9-15.42,4.94-20,5-75.31-20.31-82.42C2682.68,1233.54,2655.26,1224.66,2658.59,1295Z" transform="translate(-10 -1.82)"/><path class="cls-50" d="M2549.78,1311.33s20.3-3.37,21.53,26.07,14,84.12,34.75,105.92l-81.68,3.1c-20.76-21.8-31-74-32.51-103.41-1.43-27-21.54-26.07-21.54-26.07Z" transform="translate(-10 -1.82)"/><path class="cls-49" d="M2597.43,1243.91a11.35,11.35,0,0,0,1.5.87,20.58,20.58,0,0,0,7.13,1.94,25.17,25.17,0,0,0,3.25.14c.66,0,1.32-.06,2-.12,19.25-1.88,38.37-23.91,38.37-23.91-38.67-5.86-55.24,1.34-55.24,1.34S2588.25,1237.72,2597.43,1243.91Z" transform="translate(-10 -1.82)"/><path class="cls-25" d="M2605.7,1110.65s-45.75-9.18-34,47.84,22.81,61.26,50,48.76,23.84-49.14,24.79-67.17S2620.23,1110.93,2605.7,1110.65Z" transform="translate(-10 -1.82)"/><path class="cls-25" d="M2598.23,1230s9,6,43.15-9.09a119.71,119.71,0,0,1,1.87-42.54c5.07-21.42-41.95,26.41-41.95,26.41.54.39.65,2.58.33,5.63-.08.83-.19,1.71-.34,2.63-.24,1.57-.57,3.27-1,5-.11.47-.23.94-.35,1.4C2598,1226.72,2598.23,1223.58,2598.23,1230Z" transform="translate(-10 -1.82)"/><path class="cls-43" d="M2645,1169.52s-2.29-15.36-8.9-15.77-8.49,9-8.49,9l-5.18.54s2.14-16.28-4.51-18.89-42.55,6.27-47.94,1.75-2.73-34.53,6.72-39.15,34.66-17.2,54.3-4.58c0,0,15-2.08,17.55,10S2648.84,1160.38,2645,1169.52Z" transform="translate(-10 -1.82)"/><path class="cls-25" d="M2627.81,1148.37c1.11-5.36,12-6.42,12.16,1.78s-6.8,22-10.75,20.21S2626.28,1155.77,2627.81,1148.37Z" transform="translate(-10 -1.82)"/><path class="cls-51" d="M2641.37,1214.41s-17.85,10.76-35.51,13.19l9.4,15,29.76-20.5Z" transform="translate(-10 -1.82)"/><path class="cls-51" d="M2600,1219.42s1.88,6.17,5.91,8.18l-8.83,12.3.33-16.31Z" transform="translate(-10 -1.82)"/><path class="cls-31" d="M2605.86,1227.6l-7,9.74s4.42,5.6,14,1.36Z" transform="translate(-10 -1.82)"/><path class="cls-31" d="M2598.93,1244.78a20.58,20.58,0,0,0,7.13,1.94,25.17,25.17,0,0,0,3.25.14l-1.06-9.08h-6.45A29.47,29.47,0,0,0,2598.93,1244.78Z" transform="translate(-10 -1.82)"/><path class="cls-29" d="M2600.1,1218.83c20.24,1.08,33.2-19.92,33.59-20.54-12.71,13.89-32.4,14.72-32.4,14.72C2601.05,1214.58,2600.51,1217.1,2600.1,1218.83Z" transform="translate(-10 -1.82)"/><path class="cls-52" d="M2549.78,1311.33s-24.31,2.26-19.17,36.18l-72.16,3.91s-10-23.11,11.88-34.48Z" transform="translate(-10 -1.82)"/><rect class="cls-53" x="2465.3" y="1334.79" width="56.43" height="2.94" transform="matrix(-1, 0.05, -0.05, -1, 5045.24, 2534.78)"/><rect class="cls-53" x="2470.14" y="1321.75" width="56.43" height="2.94" transform="translate(5054.19 2508.51) rotate(176.92)"/><rect class="cls-53" x="2500.37" y="1350.7" width="56.43" height="2.94" transform="translate(-78.98 135.96) rotate(-3.08)"/><rect class="cls-53" x="2507.43" y="1370.43" width="56.43" height="2.94" transform="translate(-80.05 136.41) rotate(-3.08)"/><rect class="cls-53" x="2514.5" y="1390.16" width="56.43" height="2.94" transform="translate(-81.08 136.77) rotate(-3.08)"/><rect class="cls-53" x="2521.56" y="1409.89" width="56.43" height="2.94" transform="translate(-82.15 137.22) rotate(-3.08)"/><rect class="cls-53" x="2528.63" y="1429.62" width="56.43" height="2.94" transform="translate(-83.18 137.59) rotate(-3.08)"/><path class="cls-25" d="M2612.32,1374.74s-3.13,1.47-5.84.74c-4.69-1.28-8.69-7.79-14.82-4.45s-1,25.79,2.13,29.08,12.66,1.37,24.6-7.19S2612.32,1374.74,2612.32,1374.74Z" transform="translate(-10 -1.82)"/><path class="cls-25" d="M2593.88,1370.21a200.14,200.14,0,0,0-21.78,3c-10,2-22.19,5.87-21.72,8.4.71,3.84,10.32-.48,20.39-1.79,9.28-1.2,7.65.61,7.65.61s.43-.54-9.42,2.75c-10.59,3.55-21.81,7.8-21.47,9.88.43,2.57.7,2.86,4.76,2.21-2.25.88-2.33,1.63-2.05,2.61,1.43,5.09,17.8,2.33,24.3,1.23-5,.88-8.56,2.06-5.67,4.61,3.31,2.91,26.28-2,34.68-3C2612.71,1399.68,2593.88,1370.21,2593.88,1370.21Z" transform="translate(-10 -1.82)"/><path class="cls-22" d="M2674.61,1234.25c-7.43,2.44-11.4,12.94-6.88,34.74,5,24.1,10.6,35.83,13.82,41.51s20.65,34.75,17.46,39.36-45.27,15.55-48.13,16.36c-5.71,1.62-43.89,9.24-43.89,9.24l9.35,32.7s116.25-19.83,121.91-25.49,8.61-13.33,2.35-33.1c-6.36-20.09-17.79-67.12-19.82-70.8S2708.1,1223.24,2674.61,1234.25Z" transform="translate(-10 -1.82)"/><path class="cls-54" d="M2668.76,1273.74s2.62,36.94,14.26,63.17a24.88,24.88,0,0,0,10.07-5.53s-13.45-24.28-14.66-27S2670.13,1280.17,2668.76,1273.74Z" transform="translate(-10 -1.82)"/><g class="cls-55"><rect class="cls-22" x="580.01" y="940.67" width="592.11" height="422.13" rx="33.85"/></g><rect class="cls-56" x="1000.39" y="1019.8" width="18.51" height="102.9"/><rect class="cls-57" x="1032.89" y="992.36" width="18.51" height="130.33"/><rect class="cls-58" x="1067" y="1006.71" width="18.51" height="115.98"/><rect class="cls-59" x="1102.04" y="1040.04" width="18.51" height="82.66"/><rect class="cls-60" x="1000.39" y="1057.44" width="18.51" height="65.26"/><rect class="cls-60" x="1032.89" y="1040.04" width="18.51" height="82.66"/><rect class="cls-60" x="1067" y="1049.14" width="18.51" height="73.56"/><rect class="cls-60" x="1102.04" y="1071.25" width="18.51" height="51.45"/><rect class="cls-31" x="1005.47" y="1157.93" width="110" height="29.33" rx="7.3"/><rect class="cls-31" x="1005.47" y="1212.85" width="110" height="29.33" rx="7.3"/><rect class="cls-31" x="1005.47" y="1267.77" width="110" height="29.33" rx="7.3"/><path class="cls-31" d="M962.29,1094.32a163.43,163.43,0,1,0-307.77,110.07c1.23,3.46,2.58,6.86,4,10.19a163.44,163.44,0,0,0,303.75-120.26ZM849.66,1264.73a122.39,122.39,0,0,1-153.61-66.48q-1.62-3.74-3-7.64a122.53,122.53,0,1,1,156.63,74.12Z" transform="translate(-10 -1.82)"/><path class="cls-61" d="M691.43,1112.83l-39-12.19A163.64,163.64,0,0,1,803.51,986l1.23,40.89a122.74,122.74,0,0,0-113.31,86Z" transform="translate(-10 -1.82)"/><path class="cls-62" d="M696.05,1198.25l-37.51,16.33c-1.44-3.33-2.79-6.73-4-10.19a162.65,162.65,0,0,1-2.13-103.75l39,12.19a122,122,0,0,0,1.6,77.78Q694.43,1194.51,696.05,1198.25Z" transform="translate(-10 -1.82)"/><path class="cls-63" d="M683.87,1255.26a162.83,162.83,0,0,1-25.33-40.68l37.51-16.33a121.74,121.74,0,0,0,19,30.51Z" transform="translate(-10 -1.82)"/><path class="cls-47" d="M1129,1842.72s-6,11.17-9.9,15.61-18.9,12.36-19,25.53c-.09,14.28,25.26,10.32,35.17,9.8s10.66-8.15,14.84-16.24,8.38-6.72,9.16-13.24-4-21.46-4-21.46Z" transform="translate(-10 -1.82)"/><path class="cls-64" d="M1154.94,1838.4s1.16,6.1.93,6.25-28.09,5.12-27.94.06c.13-4,2.57-8.71,2.57-8.71Z" transform="translate(-10 -1.82)"/><path class="cls-25" d="M1410.18,1313.23s29.24-6.15,31.42-4.88,2.33,2.92-.39,3.61-28.13,6.79-28.13,6.79,35.45-1.29,37.48-.67c1.19.36,1.64,3.53.21,4s-36.61,3.88-36.61,3.88,33.1-1.14,34.62-.09a2.46,2.46,0,0,1-1.42,4.25c-2.46.26-33.22,3.13-33.22,3.13s24.06.74,24.79,2.45c.46,1,1,3.77-5.22,3.37s-21,.28-21,.28Z" transform="translate(-10 -1.82)"/><path class="cls-47" d="M1280,1840.6s12.22,13.64,24.62,16.5,21.08,6.5,21.17,14.33-35.69,13-49.88,5.09c-21.18-11.77-23.34-8.22-25.68-14.11s2.82-21.63,2.66-23.5C1252.75,1836.6,1280,1840.6,1280,1840.6Z" transform="translate(-10 -1.82)"/><path class="cls-64" d="M1278.67,1834.08s1.61,6.39,1.37,6.52-27.94,3.44-27.11-1.69c.68-4.16,1.65-8.68,1.65-8.68Z" transform="translate(-10 -1.82)"/><path class="cls-65" d="M1253.48,1451.58s10.08,97.86,15.32,131.36c6.12,39.17,8.2,71.53,9.91,91.81,2.15,25.49,2.56,150.93,4.07,158.38s-33.38,2.06-33.38,2.06-17.16-163.89-23.56-191c-6-25.28-28.08-134.15-33.52-127.24s-12.18,127-16.21,147S1159.83,1840,1159.83,1840s-27.76,5.53-35.15-.72c0,0-3.36-134.55-.79-171.94,1-14.25-16.7-170.85,6-233.89C1141.83,1400.08,1253.48,1451.58,1253.48,1451.58Z" transform="translate(-10 -1.82)"/><path class="cls-66" d="M1080.77,1465.47s17,5.16,24.11,3.86,3.51-88.61,3.8-106.78c.21-14.74,8.28-53.64,8.28-53.64a.28.28,0,0,0,0,.06.11.11,0,0,1,0,0s0,0,0,.06c.8,2.92,11.68,43.29,12.06,62.69.39,20.13-2.63,97.14-2.63,97.14l30,2.92,86.2,2.11,18-2.12s-2.15-32.93-2.95-48.57c-.5-10-2.43-27.75-1.93-45.08,0,0-.31-18.28,1.5-26.15.19-34.73,2.3-69.14,2.3-69.14q1.74-23.61,2.44-44.21c-3.8-2-8.37-4.36-12-6.1-11.31-5.38-27.07-12.64-37.18-17.28-5.93-2.72-11.73-4.71-11.73-4.71s-40.42-3.87-43.71-3.67c-1,.07-6.08,1.83-12.71,4.35-14.34,5.44-42,16.52-46.37,19.68-6.46,4.62-20.1,114.42-20.72,122.11C1076.39,1366.9,1080.77,1465.47,1080.77,1465.47Z" transform="translate(-10 -1.82)"/><path class="cls-67" d="M1258,1458.06s-59.16,5-111,0v17s77.81,11.24,113.57-3.24Z" transform="translate(-10 -1.82)"/><path class="cls-68" d="M1207.54,1213.05s9.62,22.61,16.84,73.14c2.77,19.41,7.92,52.08,11.65,85.43h0c3,26.28,9.67,53.26,11.81,73.38,2.21,20.84,8.88,82.25,8.88,82.25l16.18-10.2c2.31-2.13,5.55-4.91,4.61-7.91-4.44-14.37-13-61.86-18-103.26,0,0,0-.05,0-.09-.24-2-.48-4-.7-5.93,0-.1,0-.21,0-.32-1-8.28-1.73-16.21-2.3-23.48a73.83,73.83,0,0,1,.73-16.33c2.25-37.16,3.37-76.33,3.37-76.33,1.19-16,1.87-31,2.32-45a87.56,87.56,0,0,0-12.46-7S1214.3,1215,1207.54,1213.05Z" transform="translate(-10 -1.82)"/><path class="cls-66" d="M1204.5,1224.84s1.08,15.47-12,15.83-23.48-12.2-23.48-12.2l21.73,5.6,13.22-11.21Z" transform="translate(-10 -1.82)"/><path class="cls-25" d="M1377.35,1325.72s9.54-2.66,10.81-8.35c1.08-4.85,5.81-10.5,7.26-12.24,1.94-2.33,5.46-11.64,8.17-9.28s-5.11,15.6-6.24,18.68,12.08-2.33,15.14-1.39,9.21,23.74-.2,26.4-20.81-.9-22.39-.09a60.58,60.58,0,0,1-6.8,2.2Z" transform="translate(-10 -1.82)"/><path class="cls-46" d="M1186.83,1106.33s30,5.06,24.93,52.05-31.59,42.85-33.36,42.79-26.65.56-28-56.89C1150.43,1144.28,1150.05,1101.79,1186.83,1106.33Z" transform="translate(-10 -1.82)"/><path class="cls-46" d="M1200,1187.55s0,19.35.79,23.54c.86,4.51-24.1,17.53-40.21,2.36,0,0,3.26-21.14,2.24-28.6S1200,1187.55,1200,1187.55Z" transform="translate(-10 -1.82)"/><path class="cls-46" d="M1211.87,1147.44s3.33-3.48,4.5.09-4.22,18.68-4.91,20.13c0,0-.62,1.38-1.4.61S1211.87,1147.44,1211.87,1147.44Z" transform="translate(-10 -1.82)"/><path class="cls-46" d="M1150.78,1143.84s-3.19-3.62-4.5-.1,3.48,19.34,4.08,20.32c0,0,1,1.62,1.85.89S1150.78,1143.84,1150.78,1143.84Z" transform="translate(-10 -1.82)"/><path class="cls-43" d="M1214.28,1141.11c-1,6.43-2,11.21-2,11.21l-4.37,5.7s.26-12.61-.4-14.59c-.26-.76-.55-2.08-.86-3.53-.5-2.37-1-5.06-1.37-6-.56-1.43-25.72-8.78-48.14,1.54,0,0,.19,1.94.18,4.11,0,2.52-.28,5.34-1.44,5.76-2.15.79-1.25,14.76-1.25,14.76l-3.49-4s-1-7.3-2-15.69a.28.28,0,0,0,0-.06c-.22-2-.45-4-.67-6-.5-8.44.33-23.77,11.32-32.77,7.42-3.18,19.26-5.88,39,.17,0,0,4.92,1.4,6.19,2.62C1217.25,1117.92,1214.28,1141.11,1214.28,1141.11Z" transform="translate(-10 -1.82)"/><path class="cls-69" d="M1164.86,1194.88s4.8,6.66,15.93,6.41,16-6.06,16-6.06-5.27,11-16,10.91S1164.86,1194.88,1164.86,1194.88Z" transform="translate(-10 -1.82)"/><path class="cls-70" d="M1201.94,1225.79l-11.2,8.28s9.4-20,9.6-27.93Z" transform="translate(-10 -1.82)"/><polygon class="cls-71" points="1190.34 1204.32 1197.96 1211.4 1205.97 1235.3 1191.94 1223.97 1190.34 1204.32"/><path class="cls-68" d="M1390,1347.83s-66.1,17.4-82.25,13.43c-7.47-1.84-17.31-12.15-26.66-24.27-3.08-4-6.11-8.18-9-12.33v0c-11.47-16.56-20.46-32.43-20.46-32.43s-33.9-39.74-6.7-57.45c0,0,11.47-1.15,18,3.66,6,4.44,20.67,32.41,23,37.59s28.15,53.34,29.87,54.42,23.82-2.87,35.49-3.84a186.23,186.23,0,0,0,34.84-6.43Z" transform="translate(-10 -1.82)"/><path class="cls-46" d="M1198.9,1213.26a132.41,132.41,0,0,1-8.16,20.81s-11.76-10.3-15.46-14S1198.9,1213.26,1198.9,1213.26Z" transform="translate(-10 -1.82)"/><path class="cls-70" d="M1178.44,1222.56l12.3,11.51s-14.54-1-17.26-3.39Z" transform="translate(-10 -1.82)"/><path class="cls-71" d="M1162.13,1201.35s9.83,16,16.31,21.21l-10.91,18.11L1150,1208.9Z" transform="translate(-10 -1.82)"/><path class="cls-68" d="M1109.91,1363.38c-1.25,16.86,5.88,110.14-1.24,111.46s-33.27-4.45-33.27-4.45-3.28-100.6-2.23-111.14c.76-7.68,13-122.81,19.44-127.44,3.72-2.67,31.34-12.46,44.89-17.8,2.47-1,10.32-4.27,12.53-5.11,2.88,3.19,27.92,61.95,30.3,107.77.72,13.95-2.55,43.4-5,67.47-2.66,25.67-5.6,45.71-7.75,67.17-4.24,42.3-7.21,76-7.21,76l-42.1-18.74c-6.81-3.4-16.24-17.39-13.68-24.56,9.73-27.26,22-73.83,22-97.74,0,0-4.69-58.57-8.42-71.44C1118.14,1314.78,1111.51,1341.94,1109.91,1363.38Z" transform="translate(-10 -1.82)"/><rect class="cls-72" x="1178" y="1457.29" width="27.88" height="20.73"/><polygon class="cls-52" points="1115.5 1566.76 1023.76 1566.76 1045.28 1505.67 1137.02 1505.67 1115.5 1566.76"/><polygon class="cls-73" points="1115.5 1566.76 1023.76 1566.76 1045.28 1505.67 1137.02 1505.67 1115.5 1566.76"/><polygon class="cls-74" points="1045.28 1627.85 1137.02 1627.85 1115.5 1566.76 1023.76 1566.76 1045.28 1627.85"/><polygon class="cls-73" points="1115.5 1688.94 1023.76 1688.94 1045.28 1627.85 1137.02 1627.85 1115.5 1688.94"/><polygon class="cls-74" points="1045.28 1750.04 1137.02 1750.04 1115.5 1688.94 1023.76 1688.94 1045.28 1750.04"/><rect class="cls-53" x="1050.66" y="1515.87" width="52.32" height="2.26"/><rect class="cls-53" x="1047.55" y="1524.07" width="52.32" height="2.26"/><rect class="cls-53" x="1044.16" y="1532.27" width="42.33" height="2.26"/><rect class="cls-53" x="1050.66" y="1637.63" width="52.32" height="2.26"/><rect class="cls-53" x="1047.55" y="1645.83" width="26.16" height="2.26"/><path class="cls-25" d="M1103.44,1476s.49,1.56,1.35,4.18c1.49,4.51,6.29,9.67,3.33,15.83s-25.15,2.29-28.53-.58-2-12.31,5.77-24.42S1103.44,1476,1103.44,1476Z" transform="translate(-10 -1.82)"/><path class="cls-25" d="M1108.81,1493.8a196,196,0,0,1-1.85,21.44c-1.43,9.9-4.6,22-7.09,21.66-3.79-.5-.07-10.11.69-20,.7-9.13-1-7.44-1-7.44s.51-.46-2.21,9.34c-2.92,10.53-6.5,21.73-8.55,21.49-2.54-.28-2.83-.53-2.4-4.53-.75,2.24-1.47,2.36-2.45,2.14-5-1.14-3.19-17.28-2.46-23.69-.59,4.92-1.56,8.47-4.2,5.77-3-3.08.64-25.79,1.16-34C1079,1476.91,1108.81,1493.8,1108.81,1493.8Z" transform="translate(-10 -1.82)"/><path class="cls-68" d="M1111,1410.54l-.43,74.14s-14.8-.66-35.19-8.19L1074,1371.94Z" transform="translate(-10 -1.82)"/><path class="cls-75" d="M992.48,1376.48l-51.49,116-1.38,3.11a13.8,13.8,0,0,1-5.72-.59l1.13-2.56,51-114.85-74.3-79.9-11.15-2.42,1.16-5.35,12.83,2.79Z" transform="translate(-10 -1.82)"/><path class="cls-76" d="M913.2,1514.87h47.64a18.44,18.44,0,0,0-.52-2.9c-1.43-5.66-6.65-17.64-25.2-17.64s-21.55,12-21.94,17.64A18.3,18.3,0,0,0,913.2,1514.87Z" transform="translate(-10 -1.82)"/><path class="cls-77" d="M864.67,1272l3.22,9.13,19.51,55.27a34.15,34.15,0,0,0-22.73-64.4Z" transform="translate(-10 -1.82)"/><path class="cls-78" d="M942.19,1492.46V1495a12.74,12.74,0,0,1-2.58.56,13.8,13.8,0,0,1-5.72-.59l-.34-.12v-2.45H935l6,0Z" transform="translate(-10 -1.82)"/><path class="cls-79" d="M913.2,1514.87h47.64a18.44,18.44,0,0,0-.52-2.9H913.18A18.3,18.3,0,0,0,913.2,1514.87Z" transform="translate(-10 -1.82)"/><path class="cls-78" d="M864.67,1272l3.22,9.13c11.38,9,29.05,24.49,37.63,40.3A34.15,34.15,0,0,0,864.67,1272Z" transform="translate(-10 -1.82)"/><path class="cls-25" d="M703.9,1369.85s8.3-10.5,9.61-12.06,6.47-3,12.5-4.18,14.52.29,15.2,1.13a5.63,5.63,0,0,1,2,4.25,12.58,12.58,0,0,1-1,5.65,7.33,7.33,0,0,1,.13,6.59,6.51,6.51,0,0,1-.88,6.6s1.52,3.24-.49,5.5c0,0-5.17,1.49-7,2.64s-12.7,3.45-23.39,3.9C710.67,1389.87,700.6,1386.52,703.9,1369.85Z" transform="translate(-10 -1.82)"/><polygon class="cls-80" points="454.37 1692.01 407.07 1889.23 396.65 1889.23 436.76 1691.58 454.37 1692.01"/><polygon class="cls-80" points="505.97 1692.01 458.67 1889.23 448.25 1889.23 488.36 1691.58 505.97 1692.01"/><polygon class="cls-80" points="589.43 1692.01 636.74 1889.23 647.15 1889.23 607.04 1691.58 589.43 1692.01"/><path class="cls-81" d="M644.2,1695.74H440.38s-14.2-.32-23.7-42.38c-10.7-47.3-32.3-205.32-32.3-205.32s5.73-14.7,95.33-12.82l160.45,208.17S645.63,1676.21,644.2,1695.74Z" transform="translate(-10 -1.82)"/><path class="cls-25" d="M650.47,1498.54s10.39-4.51,18.17-2.69,26,8.62,35,9.75,17.59,6.37,17.42,9.36-69.56,5.44-69.89-1.37S650.47,1498.54,650.47,1498.54Z" transform="translate(-10 -1.82)"/><path class="cls-25" d="M703.9,1369.85s-13.56,8.91-13.86,11.65c-.49,4.52,2.31,18.56,2.64,18.36s20.45-10.13,20.45-10.13Z" transform="translate(-10 -1.82)"/><path class="cls-65" d="M703.62,1857.46s17.46,10.39,25.37,14.25,38.68,5,41.71,7.94,1.89,12.09-3.21,13-42.51,4.21-55,1.26-35.82,1.9-41,.14-1.75-29.63.26-35.87S703.62,1857.46,703.62,1857.46Z" transform="translate(-10 -1.82)"/><path class="cls-82" d="M703.34,1845.68l.28,11.78s-23.4,4.32-31.84.74l.59-13Z" transform="translate(-10 -1.82)"/><path class="cls-68" d="M744.51,1857.46s17.46,10.39,25.37,14.25,38.68,5,41.71,7.94,1.9,12.09-3.2,13-42.51,4.21-55,1.26-35.82,1.9-41,.14-1.76-29.63.25-35.87S744.51,1857.46,744.51,1857.46Z" transform="translate(-10 -1.82)"/><path class="cls-82" d="M744.24,1845.68l.27,11.78s-23.4,4.32-31.84.74l.59-13Z" transform="translate(-10 -1.82)"/><polygon class="cls-83" points="596.82 1569.44 570.25 1564.8 587.97 1520.19 596.82 1569.44"/><path class="cls-84" d="M527.21,1580.4s133.52,28.35,154.36,37.2,33.34,12.51,34.9,16.93,34.12,216.19,34.12,216.19H706.32s-34.39-159.92-38.55-169.82-169.31-10.42-181.29-22.4-22.4-44.8-9.38-74.24S527.21,1580.4,527.21,1580.4Z" transform="translate(-10 -1.82)"/><path class="cls-84" d="M594.84,1565.51s153.12,43.08,165.65,62.77c12.77,20.06-51,222.44-51,222.44H665.68s42.2-189.62,37-198-236-.26-193-68.51S594.84,1565.51,594.84,1565.51Z" transform="translate(-10 -1.82)"/><path class="cls-68" d="M578.92,1352.71c5.76-3,25,3.57,30.66,12.41,13.19,20.54,38.13,45.93,38.13,45.93l55.61-46.74,11.14,27.86-66,55.63a14.32,14.32,0,0,1-19.2-.67c-17.35-16.84-53-52.24-55.78-61.08C569.83,1374.33,567.91,1358.43,578.92,1352.71Z" transform="translate(-10 -1.82)"/><path class="cls-46" d="M560.1,1233.68s26.57,4.42,26.83,49.48-16.84,49.32-42.72,42.72c-15.58-4-30.21-26.05-24.48-64.86S560.1,1233.68,560.1,1233.68Z" transform="translate(-10 -1.82)"/><path class="cls-52" d="M563.58,1341.25s36.62,13.3,42.09,21.63,1.93,83.34-1.2,110.17-11.72,84.65-9.63,92.46l-85.18,18.75s-27.35-99.49-28.13-115.38S460.7,1379,470.33,1373s51.58-29.44,51.58-29.44Z" transform="translate(-10 -1.82)"/><polygon class="cls-85" points="499.67 1582.44 495.5 1567.08 585.03 1549.64 584.84 1563.69 499.67 1582.44"/><polygon class="cls-86" points="544.21 1556.79 565.43 1552.36 565.43 1569.16 544.21 1574.11 544.21 1556.79"/><path class="cls-68" d="M544.68,1514.88c-.22,4.39-.51,8.84-.74,13.35l-.06.06c-3,49.43-7.53,101.15-7.53,101.15-6.22,5.19-85.11-13.13-85.11-13.13s9.71-13.19,19.07-49.72,2.05-71.52-7.71-130.88-1.65-59-1.65-59l61-33.1c4,15.18,20.15,70.26,24,101.83C547.25,1456.94,546.4,1484.51,544.68,1514.88Z" transform="translate(-10 -1.82)"/><path class="cls-68" d="M564.17,1341.36s17.75,45.85,25.28,92.61c7.68,47.69,7.3,134,15.63,136.13s5.76.7,5.76.7-1.56-52.16-2.32-69.45c-1.7-38.59,5.5-125.58,2.17-134.37S583.44,1344.83,564.17,1341.36Z" transform="translate(-10 -1.82)"/><path class="cls-46" d="M562.72,1334.16a22.34,22.34,0,0,0,.86,7.08s-4.68,18.26-41.67,2.34c0,0,7.3-27.23,0-50.06l41.67,25.86s-.52,4.1-.74,8.9C562.72,1330.22,562.66,1332.27,562.72,1334.16Z" transform="translate(-10 -1.82)"/><path class="cls-87" d="M523.42,1336.33s14.54,7,29.21,8.4l-7.15,15.21-23.57-16.35Z" transform="translate(-10 -1.82)"/><path class="cls-87" d="M552.63,1344.73s10.23-3.39,10.15-8.4l1.39,5-4.17,16Z" transform="translate(-10 -1.82)"/><path class="cls-88" d="M583.75,1259.75s7.43-16,2-27.65-19.45-6.85-25.87-5.46-18.58-12.85-40.12,4.52-15.1,35.59-5.55,57.3S525,1311.83,525,1311.83s.07-22,2.67-25.93c3.05-4.6,14.23-7,14.23-7s-8.51-11.63-.18-16S567.28,1266.63,583.75,1259.75Z" transform="translate(-10 -1.82)"/><path class="cls-46" d="M530.93,1274.39c-1.13-3.32-6.74-7.1-9.55-.86s4.51,17.19,8.51,17.19S533.53,1282,530.93,1274.39Z" transform="translate(-10 -1.82)"/><path class="cls-89" d="M552.63,1344.73l5.34,9.18s-2.47,2.84-10.41,1.6Z" transform="translate(-10 -1.82)"/><path class="cls-89" d="M556.83,1354.71s21.86,64.33,22,110-3.43,72.93-3.43,72.93l-4.81,9-7-8.21s5-132.61-14.48-182.71C549.1,1355.71,556,1352.41,556.83,1354.71Z" transform="translate(-10 -1.82)"/><path class="cls-68" d="M467.72,1373c16-6.53,32.57,15.62,41.42,37.76s25.79,62.43,25.79,62.43l118.28,19.16,1.67,22.49h-138s-52.58-94.18-56.22-105.9S456.23,1377.71,467.72,1373Z" transform="translate(-10 -1.82)"/><rect class="cls-81" x="602.96" y="1513.05" width="390" height="13.43"/><rect class="cls-90" x="831.49" y="1277.92" width="9.39" height="208.19"/><path class="cls-91" d="M864.52,1514.87H934.8v-4.26H864.52c-3.66,0-6.3-.87-7.84-2.59a6.93,6.93,0,0,1-1.56-4.89l0-.13v-90.94h-4.26v90.71a11.14,11.14,0,0,0,2.58,8C855.83,1513.5,859.55,1514.87,864.52,1514.87Z" transform="translate(-10 -1.82)"/><path class="cls-90" d="M763.83,1507.41h79.1a0,0,0,0,1,0,0v.61a6.85,6.85,0,0,1-6.85,6.85H763.83a0,0,0,0,1,0,0v-7.46A0,0,0,0,1,763.83,1507.41Z" transform="translate(1596.76 3020.46) rotate(180)"/><rect class="cls-92" x="962.41" y="1528.3" width="11.08" height="364.99" transform="translate(1925.9 3419.78) rotate(180)"/><rect class="cls-92" x="642.43" y="1528.3" width="11.08" height="364.99" transform="translate(1285.94 3419.78) rotate(180)"/><path class="cls-85" d="M544.68,1514.88c-.22,4.39-.51,8.84-.74,13.35l-.06.06s-15.37,2-28.25-3.82-21.92-50.41-22.55-52.75c1.32,2.57,22,43.16,27.06,43.16Z" transform="translate(-10 -1.82)"/><path class="cls-29" d="M562.84,1328.28c-.12,1.94-.18,4-.12,5.88-29.39.46-29.85-16.33-29.85-16.33C537.43,1330,562.84,1328.28,562.84,1328.28Z" transform="translate(-10 -1.82)"/><rect class="cls-93" x="716.32" y="1351.09" width="44.67" height="3.78" transform="translate(-742.43 890.65) rotate(-43.99)"/><polygon class="cls-25" points="743.41 1334.29 749.46 1331.09 746.04 1337.01 743.41 1334.29"/><path class="cls-94" d="M739.62,1355s-15.24,3.29-15.17,6,1.6,3.64,1.6,3.64l-5.84,4.46s-2.46,5.29,3.37,6.43c0,0-2.74,4.7,3,5.06,0,0-.59,3.92,2,4.61s12.37-1.87,12.37-1.87,2.33-1.53.94-5.48a6.45,6.45,0,0,0,.83-6.58,7.11,7.11,0,0,0-.11-6.65s3-6.49-1.47-9.88C741.21,1354.74,740.26,1354.83,739.62,1355Z" transform="translate(-10 -1.82)"/><path class="cls-25" d="M714,1357.63s10,3.2,14.69,7.64c1.06,1,1.9,2.2,1.41,3.7s-3.06,2.72-7.48,1.58-10.69-.37-10.69-.37S707.74,1367.53,714,1357.63Z" transform="translate(-10 -1.82)"/><path class="cls-95" d="M726.82,1697.68s-9.36-58.41-9.85-60.78-10-10.88-55.55-25.79c0,0,50.61,9.83,63.88,18.47C735.52,1636.24,726.82,1697.68,726.82,1697.68Z" transform="translate(-10 -1.82)"/><path class="cls-96" d="M917.35,1514.87c5-2.08,13.07-25.68,17-37.9,1.37-4.33,2.23-7.24,2.23-7.24h-45.7c3.95,28.21,13.54,45.14,13.54,45.14Z" transform="translate(-10 -1.82)"/><path class="cls-97" d="M921,1455.68c0-1.64,7.33-8.51,11-13s-1.41-13-1.41-13c-16.36,6.77-13.54,26-13.54,26S921,1457.32,921,1455.68Z" transform="translate(-10 -1.82)"/><path class="cls-97" d="M911.71,1456.41h2s1.41-33.22-10.72-37.73-12.13-13.54-12.13-13.54-3.67,12.41,2.25,18.9,12.7,14.1,11.57,20.31S911.71,1456.41,911.71,1456.41Z" transform="translate(-10 -1.82)"/><path class="cls-98" d="M934.31,1477c1.37-4.33,2.23-7.24,2.23-7.24h-45.7c3.95,28.21,13.54,45.14,13.54,45.14h3C906.81,1488.46,924.2,1479.78,934.31,1477Z" transform="translate(-10 -1.82)"/><polygon class="cls-99" points="926.53 1453.86 880.5 1453.86 877.88 1467.92 928.4 1467.92 926.53 1453.86"/></g></g></svg>